<svg xmlns="http://www.w3.org/2000/svg" width="34.618" height="22.421" viewBox="0 0 34.618 22.421">
  <g id="Group_25" data-name="Group 25" transform="translate(-428 -985)">
    <path id="Path_15" data-name="Path 15" d="M787.37,499.925c-.506.025-.842.055-1.178.055q-8.831,0-17.663,0c-2.3,0-3.324-1-3.331-3.317q-.026-7.9,0-15.806c.008-2.246,1.031-3.262,3.24-3.265q11.488-.013,22.975,0c2.268,0,3.237.973,3.253,3.219.009,1.28,0,2.561,0,3.933h-2.686v-4.326H768.065v16.768c.455.021.919.061,1.383.061,4.781,0,9.562.03,14.343-.018,1.1-.011,1.959.111,2.453,1.251A7.794,7.794,0,0,0,787.37,499.925Z" transform="translate(-337.184 507.414)" fill="#727272"/>
    <path id="Path_16" data-name="Path 16" d="M792.9,508.91l2.158,3.11,3.792-5.466c1.077,1.588,2.09,3.053,3.057,4.546.1.162-.048.493-.087.745-.212,1.385-.426,2.77-.665,4.317H787.969Z" transform="translate(-353.915 486.142)" fill="#727272"/>
    <path id="Path_17" data-name="Path 17" d="M792.08,498.426a2.18,2.18,0,1,1-2.229-2.152A2.186,2.186,0,0,1,792.08,498.426Z" transform="translate(-353.734 493.692)" fill="#727272"/>
    <path id="Path_18" data-name="Path 18" d="M852.638,512.653a6.552,6.552,0,1,0,6.511,6.511A6.57,6.57,0,0,0,852.638,512.653Zm2.664,7.531h-1.86v1.86a.8.8,0,0,1-1.594,0v-1.86h-1.86a.8.8,0,0,1,0-1.594h1.86v-1.86a.8.8,0,1,1,1.594,0v1.86h1.86a.8.8,0,0,1,0,1.594Z" transform="translate(-396.532 481.664)" fill="#727272"/>
  </g>
</svg>
