<svg xmlns="http://www.w3.org/2000/svg" width="24.703" height="16" viewBox="0 0 24.703 16">
  <g id="Group_24" data-name="Group 24" transform="translate(-765.184 -477.586)">
    <path id="Path_1" data-name="Path 1" d="M781.016,493.527c-.361.018-.6.039-.841.039q-6.3,0-12.6,0c-1.642,0-2.372-.715-2.377-2.367q-.019-5.64,0-11.28c.006-1.6.736-2.328,2.312-2.33q8.2-.009,16.4,0c1.619,0,2.31.694,2.321,2.3.006.914,0,1.827,0,2.806h-1.917v-3.087H767.24v11.966c.325.015.656.043.987.043,3.412,0,6.824.021,10.235-.013.784-.008,1.4.079,1.75.892A5.563,5.563,0,0,0,781.016,493.527Z" fill="#5179f8"/>
    <path id="Path_2" data-name="Path 2" d="M791.489,508.235l1.54,2.219,2.706-3.9c.769,1.133,1.491,2.178,2.181,3.244.075.115-.035.352-.062.532-.151.988-.3,1.977-.474,3.081h-9.411Z" transform="translate(-18.465 -23.476)" fill="#5179f8"/>
    <path id="Path_3" data-name="Path 3" d="M790.831,497.81a1.555,1.555,0,1,1-1.59-1.536A1.56,1.56,0,0,1,790.831,497.81Z" transform="translate(-18.264 -15.144)" fill="#5179f8"/>
    <path id="Path_4" data-name="Path 4" d="M850.738,512.653a4.676,4.676,0,1,0,4.646,4.646A4.688,4.688,0,0,0,850.738,512.653Zm1.9,5.374h-1.327v1.327a.569.569,0,0,1-1.138,0v-1.327h-1.327a.569.569,0,0,1,0-1.138h1.327v-1.327a.569.569,0,1,1,1.138,0v1.327h1.327a.569.569,0,0,1,0,1.138Z" transform="translate(-65.497 -28.418)" fill="#5179f8"/>
  </g>
</svg>
