<svg xmlns="http://www.w3.org/2000/svg" width="288.045" height="60.069" viewBox="0 0 288.045 60.069">
  <g id="Group_46" data-name="Group 46" transform="translate(-146.347 -33.298)">
    <path id="Path_20" data-name="Path 20" d="M614.547,318.124q12.878,0,19.774,4.528t6.9,14.83q0,10.387-6.979,15T614.3,357.09h-4.071v19.275h-12.96V319.619a73.638,73.638,0,0,1,8.973-1.163Q610.975,318.125,614.547,318.124Zm.831,11.05q-1.413,0-2.783.083t-2.368.166V346.04H614.3q6.731,0,10.136-1.828t3.407-6.812a8.18,8.18,0,0,0-.872-3.988,6.645,6.645,0,0,0-2.493-2.534,11.255,11.255,0,0,0-3.947-1.329A32.614,32.614,0,0,0,615.378,329.174Z" transform="translate(-371.411 -284.161)" fill="#f8f8f8"/>
    <path id="Path_21" data-name="Path 21" d="M746.562,347a35.45,35.45,0,0,1-2.2,13,26.75,26.75,0,0,1-6.024,9.389,24.724,24.724,0,0,1-9.1,5.691,33.065,33.065,0,0,1-11.341,1.911,32.212,32.212,0,0,1-11.133-1.911,25.575,25.575,0,0,1-9.139-5.691A26.6,26.6,0,0,1,691.478,360a34.842,34.842,0,0,1-2.244-13,33.726,33.726,0,0,1,2.327-13,27.694,27.694,0,0,1,6.272-9.43,25.809,25.809,0,0,1,9.139-5.732,31.39,31.39,0,0,1,10.926-1.911,32.224,32.224,0,0,1,11.133,1.911,25.34,25.34,0,0,1,9.139,5.732,27.041,27.041,0,0,1,6.148,9.43A34.837,34.837,0,0,1,746.562,347Zm-43.951,0a26.125,26.125,0,0,0,1.039,7.643,17.423,17.423,0,0,0,2.991,5.857,13.216,13.216,0,0,0,4.777,3.781,16.363,16.363,0,0,0,12.919,0,13.143,13.143,0,0,0,4.819-3.781,17.492,17.492,0,0,0,2.991-5.857A26.183,26.183,0,0,0,733.185,347a26.617,26.617,0,0,0-1.038-7.686,17.47,17.47,0,0,0-2.991-5.9,13.166,13.166,0,0,0-4.819-3.781,15.141,15.141,0,0,0-6.439-1.329,14.667,14.667,0,0,0-6.48,1.37,13.657,13.657,0,0,0-4.777,3.822,17.41,17.41,0,0,0-2.991,5.9A26.249,26.249,0,0,0,702.611,347Z" transform="translate(-412.367 -283.628)" fill="#f8f8f8"/>
    <path id="Path_22" data-name="Path 22" d="M824.894,365.945a18.707,18.707,0,0,0,4.528-.456,8.322,8.322,0,0,0,2.866-1.247,4.167,4.167,0,0,0,1.5-1.869,6.659,6.659,0,0,0,.416-2.409,5.566,5.566,0,0,0-2.658-4.694,38.031,38.031,0,0,0-9.14-4.03q-2.825-1-5.649-2.285a20.8,20.8,0,0,1-5.068-3.24,15.459,15.459,0,0,1-3.656-4.736,14.82,14.82,0,0,1-1.412-6.771,16.759,16.759,0,0,1,1.5-7.187,15.346,15.346,0,0,1,4.237-5.442,19.386,19.386,0,0,1,6.647-3.448,29.847,29.847,0,0,1,8.806-1.2,35.207,35.207,0,0,1,17.032,3.988l-3.739,10.22a35.549,35.549,0,0,0-5.358-2.2,23.238,23.238,0,0,0-7.1-.955q-4.653,0-6.687,1.287a4.345,4.345,0,0,0-2.036,3.946,4.554,4.554,0,0,0,.748,2.659,7.252,7.252,0,0,0,2.119,1.952,18.507,18.507,0,0,0,3.157,1.579q1.786.707,3.947,1.454,4.487,1.663,7.809,3.282a20.882,20.882,0,0,1,5.525,3.78,13.719,13.719,0,0,1,3.282,5.068,20.385,20.385,0,0,1,1.08,7.062q0,8.06-5.65,12.5t-17.031,4.445a47.286,47.286,0,0,1-6.9-.457,44.7,44.7,0,0,1-5.442-1.122A31.072,31.072,0,0,1,808.485,374a30.722,30.722,0,0,1-2.867-1.413l3.656-10.3a32.467,32.467,0,0,0,6.356,2.534A32.969,32.969,0,0,0,824.894,365.945Z" transform="translate(-464.196 -283.628)" fill="#f8f8f8"/>
    <path id="Path_23" data-name="Path 23" d="M934.942,319.322v11.05H917.577V376.9h-12.96V330.372H887.252v-11.05Z" transform="translate(-500.55 -284.695)" fill="#f8f8f8"/>
    <g id="Group_35" data-name="Group 35" transform="translate(146.346 34.627)">
      <rect id="Rectangle_26" data-name="Rectangle 26" width="12.961" height="11.469" transform="translate(34.147 0)" fill="#f8f8f8"/>
      <path id="Path_24" data-name="Path 24" d="M488.07,374v4.4q0,6.979-2.949,9.886a10.474,10.474,0,0,1-7.686,2.908,13.163,13.163,0,0,1-4.278-.665,7.692,7.692,0,0,1-3.324-2.2,10.937,10.937,0,0,1-2.16-3.988,19.509,19.509,0,0,1-.789-5.94V374H453.923v5.481a29.705,29.705,0,0,0,1.37,9.263,18.916,18.916,0,0,0,4.237,7.228,19.468,19.468,0,0,0,7.27,4.736,29.01,29.01,0,0,0,10.469,1.7A30.632,30.632,0,0,0,487.9,400.75a19.36,19.36,0,0,0,7.394-4.694,19.063,19.063,0,0,0,4.32-7.27,29.306,29.306,0,0,0,1.412-9.305V374Z" transform="translate(-453.923 -343.672)" fill="#f8f8f8"/>
      <rect id="Rectangle_27" data-name="Rectangle 27" width="12.961" height="11.469" transform="translate(0 0)" fill="#f8f8f8"/>
    </g>
  </g>
</svg>
